<svg width="73" height="50" viewBox="0 0 73 50" fill="none" xmlns="http://www.w3.org/2000/svg">
<path d="M72.993 5.35296C72.8982 7.14587 71.931 8.66743 71.1034 10.2027C69.3639 13.6666 67.4277 17.0464 65.6071 20.4707C64.0038 23.4864 62.4056 26.5038 60.8091 29.5211C59.2505 32.4664 57.6937 35.4133 56.1386 38.3603C54.9645 40.5843 53.7922 42.8082 52.6198 45.0339C51.8802 46.4387 51.2681 48.0495 49.9872 49.0714C48.8303 49.9936 47.2477 50.1808 45.8356 49.8442C44.2943 49.4767 43.1478 48.4394 42.2686 47.1548C41.1497 45.5165 40.3583 43.6222 39.4342 41.8637C38.6532 40.3765 37.8705 38.8892 37.0861 37.402C35.2913 33.9931 33.4949 30.5842 31.6984 27.177C30.226 24.3846 28.7537 21.5939 27.2813 18.8032C26.9607 18.197 26.6417 17.5907 26.321 16.9845C26.2866 16.9175 25.9349 16.3938 25.9728 16.3233L13.8682 39.3134C13.8682 39.3134 22.4454 39.3392 25.9728 39.3392C29.4985 39.3392 31.3001 42.1419 31.3001 44.9927C31.3001 47.8417 27.9261 49.8596 25.9728 49.8596C23.5177 49.8596 21.0644 49.8596 18.6093 49.8596C15.9888 49.8596 13.3682 49.803 10.7476 49.7995C9.53391 49.7978 8.31845 49.7858 7.10644 49.8356C4.99792 49.9232 3.11524 49.9489 1.53946 48.3655C0.773975 47.5979 0.24986 46.5915 0.0671103 45.5251C-0.250116 43.6635 0.615364 42.0938 1.44464 40.5001C1.73772 39.9351 2.03426 39.3735 2.3308 38.8102C2.95491 37.6218 3.57901 36.4317 4.20485 35.2433C5.06515 33.6067 5.92546 31.9701 6.78576 30.3334C7.78916 28.4255 8.79084 26.5192 9.79424 24.6112C10.8459 22.6105 11.8976 20.6098 12.951 18.6091C13.9596 16.6926 14.9664 14.776 15.975 12.8595C16.8456 11.2039 17.7163 9.54843 18.5869 7.89463C19.1472 6.82987 19.6955 5.75826 20.2593 4.6935C20.7868 3.69916 21.3023 2.66017 22.0247 1.78776C22.9988 0.613092 24.4625 0 25.9762 0C27.202 0 28.252 0.109912 29.2054 0.973736C30.1864 1.8616 30.8174 3.08263 31.4777 4.21436C32.9397 6.71481 34.2362 9.31831 35.5947 11.8771C36.8619 14.2643 38.1257 16.6531 39.3877 19.0419C40.6169 21.3706 41.8462 23.7011 43.072 26.0298C43.9944 27.7815 44.9167 29.5349 45.8374 31.2883C46.1839 31.9477 46.527 32.6089 46.877 33.2649L58.9574 10.3762C59.7609 8.85462 60.5625 7.33477 61.3659 5.81321C62.1383 4.35003 62.8504 2.83705 64.0641 1.67441C66.0381 -0.216385 69.4414 -0.685221 71.4672 1.39963C72.2016 2.15698 72.6947 3.13072 72.9085 4.15941C72.9895 4.54924 73.0137 4.94939 72.993 5.35296Z" fill="url(#paint0_linear_279_3226)"/>
<defs>
<linearGradient id="paint0_linear_279_3226" x1="-0.000282857" y1="24.9968" x2="73" y2="24.9968" gradientUnits="userSpaceOnUse">
<stop stop-color="#00F260"/>
<stop offset="1" stop-color="#0575E6"/>
</linearGradient>
</defs>
</svg>
